<svg xmlns="http://www.w3.org/2000/svg" xmlns:xlink="http://www.w3.org/1999/xlink" version="1.1" width="256" height="256" viewBox="0 0 256 256" xml:space="preserve">
<g style="stroke: none; stroke-width: 0; stroke-dasharray: none; stroke-linecap: butt; stroke-linejoin: miter; stroke-miterlimit: 10; fill: none; fill-rule: nonzero; opacity: 1;" transform="translate(1.4065934065934016 1.4065934065934016) scale(2.81 2.81)">
	<path d="M 89 32.334 H 78.418 c -0.553 0 -1 -0.448 -1 -1 s 0.447 -1 1 -1 H 89 c 0.553 0 1 0.448 1 1 S 89.553 32.334 89 32.334 z" style="stroke: none; stroke-width: 1; stroke-dasharray: none; stroke-linecap: butt; stroke-linejoin: miter; stroke-miterlimit: 10; fill: rgb(0,0,0); fill-rule: nonzero; opacity: 1;" transform=" matrix(1 0 0 1 0 0) " stroke-linecap="round"/>
	<path d="M 11.583 32.334 H 1 c -0.552 0 -1 -0.448 -1 -1 s 0.448 -1 1 -1 h 10.583 c 0.552 0 1 0.448 1 1 S 12.135 32.334 11.583 32.334 z" style="stroke: none; stroke-width: 1; stroke-dasharray: none; stroke-linecap: butt; stroke-linejoin: miter; stroke-miterlimit: 10; fill: rgb(0,0,0); fill-rule: nonzero; opacity: 1;" transform=" matrix(1 0 0 1 0 0) " stroke-linecap="round"/>
	<path d="M 74.229 16.133 c -0.352 0 -0.693 -0.186 -0.876 -0.515 c -0.268 -0.483 -0.093 -1.092 0.391 -1.359 l 9.256 -5.13 c 0.482 -0.268 1.092 -0.093 1.359 0.39 s 0.093 1.092 -0.391 1.359 l -9.256 5.13 C 74.559 16.093 74.393 16.133 74.229 16.133 z" style="stroke: none; stroke-width: 1; stroke-dasharray: none; stroke-linecap: butt; stroke-linejoin: miter; stroke-miterlimit: 10; fill: rgb(0,0,0); fill-rule: nonzero; opacity: 1;" transform=" matrix(1 0 0 1 0 0) " stroke-linecap="round"/>
	<path d="M 6.518 53.666 c -0.352 0 -0.693 -0.186 -0.875 -0.516 c -0.268 -0.482 -0.093 -1.091 0.39 -1.359 l 9.255 -5.131 c 0.483 -0.267 1.091 -0.093 1.359 0.391 c 0.268 0.482 0.093 1.091 -0.39 1.359 l -9.255 5.131 C 6.848 53.626 6.682 53.666 6.518 53.666 z" style="stroke: none; stroke-width: 1; stroke-dasharray: none; stroke-linecap: butt; stroke-linejoin: miter; stroke-miterlimit: 10; fill: rgb(0,0,0); fill-rule: nonzero; opacity: 1;" transform=" matrix(1 0 0 1 0 0) " stroke-linecap="round"/>
	<path d="M 15.771 16.133 c -0.164 0 -0.33 -0.04 -0.484 -0.125 l -9.255 -5.13 C 5.549 10.609 5.374 10 5.642 9.518 C 5.91 9.035 6.518 8.86 7.001 9.128 l 9.255 5.13 c 0.483 0.268 0.658 0.876 0.39 1.359 C 16.464 15.947 16.123 16.133 15.771 16.133 z" style="stroke: none; stroke-width: 1; stroke-dasharray: none; stroke-linecap: butt; stroke-linejoin: miter; stroke-miterlimit: 10; fill: rgb(0,0,0); fill-rule: nonzero; opacity: 1;" transform=" matrix(1 0 0 1 0 0) " stroke-linecap="round"/>
	<path d="M 83.482 53.666 c -0.164 0 -0.33 -0.04 -0.483 -0.125 l -9.256 -5.131 c -0.483 -0.269 -0.658 -0.877 -0.391 -1.359 c 0.268 -0.484 0.878 -0.658 1.359 -0.391 l 9.256 5.131 c 0.483 0.269 0.658 0.877 0.391 1.359 C 84.176 53.48 83.834 53.666 83.482 53.666 z" style="stroke: none; stroke-width: 1; stroke-dasharray: none; stroke-linecap: butt; stroke-linejoin: miter; stroke-miterlimit: 10; fill: rgb(0,0,0); fill-rule: nonzero; opacity: 1;" transform=" matrix(1 0 0 1 0 0) " stroke-linecap="round"/>
	<path d="M 63.504 12.15 C 58.006 6.988 50.809 4.4 43.257 4.881 C 29.825 5.724 18.982 16.48 18.035 29.9 c -0.631 8.951 3.182 17.611 10.2 23.166 c 3.495 2.766 5.499 6.822 5.499 11.13 v 0.62 v 6.957 c 0 1.575 1.087 2.891 2.546 3.265 v 4.825 c 0 2.929 2.382 5.311 5.311 5.311 h 6.818 c 2.929 0 5.311 -2.382 5.311 -5.311 v -4.825 c 1.459 -0.374 2.546 -1.69 2.546 -3.265 v -6.957 v -0.623 c 0 -4.291 1.984 -8.395 5.309 -10.979 c 6.647 -5.166 10.46 -12.949 10.46 -21.355 C 72.034 24.425 68.925 17.242 63.504 12.15 z M 51.72 79.863 c 0 1.825 -1.485 3.311 -3.311 3.311 h -6.818 c -1.826 0 -3.311 -1.485 -3.311 -3.311 v -4.708 H 51.72 V 79.863 z M 54.266 71.773 c 0 0.762 -0.619 1.382 -1.381 1.382 H 52.72 H 37.28 h -0.165 c -0.761 0 -1.381 -0.62 -1.381 -1.382 v -5.957 h 18.531 V 71.773 z M 60.348 51.636 c -3.711 2.884 -5.965 7.414 -6.077 12.181 H 35.73 c -0.114 -4.78 -2.379 -9.252 -6.253 -12.318 c -6.5 -5.145 -10.031 -13.166 -9.446 -21.457 C 20.907 17.616 30.946 7.658 43.382 6.877 c 7.014 -0.439 13.662 1.951 18.753 6.731 c 5.094 4.784 7.899 11.267 7.899 18.252 C 70.034 39.644 66.504 46.852 60.348 51.636 z" style="stroke: none; stroke-width: 1; stroke-dasharray: none; stroke-linecap: butt; stroke-linejoin: miter; stroke-miterlimit: 10; fill: rgb(0,0,0); fill-rule: nonzero; opacity: 1;" transform=" matrix(1 0 0 1 0 0) " stroke-linecap="round"/>
	<path d="M 45 36.588 L 45 36.588 c -1.906 0 -3.77 -1.204 -5.542 -3.579 c -0.33 -0.443 -0.239 -1.069 0.204 -1.4 c 0.444 -0.331 1.07 -0.238 1.4 0.204 c 2.747 3.684 5.131 3.682 7.876 0 c 0.33 -0.443 0.958 -0.534 1.399 -0.203 c 0.443 0.33 0.534 0.957 0.204 1.399 C 48.771 35.384 46.905 36.588 45 36.588 z" style="stroke: none; stroke-width: 1; stroke-dasharray: none; stroke-linecap: butt; stroke-linejoin: miter; stroke-miterlimit: 10; fill: rgb(0,0,0); fill-rule: nonzero; opacity: 1;" transform=" matrix(1 0 0 1 0 0) " stroke-linecap="round"/>
	<path d="M 31.5 32 c -0.552 0 -1 -0.448 -1 -1 v -2.365 c 0 -0.552 0.448 -1 1 -1 s 1 0.448 1 1 V 31 C 32.5 31.552 32.052 32 31.5 32 z" style="stroke: none; stroke-width: 1; stroke-dasharray: none; stroke-linecap: butt; stroke-linejoin: miter; stroke-miterlimit: 10; fill: rgb(0,0,0); fill-rule: nonzero; opacity: 1;" transform=" matrix(1 0 0 1 0 0) " stroke-linecap="round"/>
	<path d="M 58.5 32 c -0.553 0 -1 -0.448 -1 -1 v -2.365 c 0 -0.552 0.447 -1 1 -1 s 1 0.448 1 1 V 31 C 59.5 31.552 59.053 32 58.5 32 z" style="stroke: none; stroke-width: 1; stroke-dasharray: none; stroke-linecap: butt; stroke-linejoin: miter; stroke-miterlimit: 10; fill: rgb(0,0,0); fill-rule: nonzero; opacity: 1;" transform=" matrix(1 0 0 1 0 0) " stroke-linecap="round"/>
</g>
</svg>