<svg xmlns="http://www.w3.org/2000/svg" xmlns:xlink="http://www.w3.org/1999/xlink" version="1.1" width="256" height="256" viewBox="0 0 256 256" xml:space="preserve">
<g style="stroke: none; stroke-width: 0; stroke-dasharray: none; stroke-linecap: butt; stroke-linejoin: miter; stroke-miterlimit: 10; fill: none; fill-rule: nonzero; opacity: 1;" transform="translate(1.4065934065934016 1.4065934065934016) scale(2.81 2.81)">
	<path d="M 58.819 38.776 c -2.004 0 -3.888 -0.78 -5.304 -2.197 c -1.417 -1.417 -2.198 -3.3 -2.198 -5.304 c 0 -2.003 0.78 -3.887 2.198 -5.304 l 0 0 l 0 0 c 1.416 -1.417 3.3 -2.197 5.304 -2.197 c 2.003 0 3.887 0.78 5.304 2.197 c 2.924 2.925 2.924 7.684 0 10.608 C 62.707 37.996 60.822 38.776 58.819 38.776 z M 58.819 25.774 c -1.47 0 -2.851 0.572 -3.89 1.611 l 0 0 c -1.039 1.039 -1.612 2.421 -1.612 3.89 c 0 1.469 0.572 2.851 1.612 3.89 c 1.039 1.039 2.42 1.611 3.89 1.611 c 1.469 0 2.851 -0.572 3.89 -1.611 c 2.145 -2.145 2.145 -5.635 0 -7.78 C 61.67 26.346 60.288 25.774 58.819 25.774 z M 54.222 26.678 h 0.01 H 54.222 z" style="stroke: none; stroke-width: 1; stroke-dasharray: none; stroke-linecap: butt; stroke-linejoin: miter; stroke-miterlimit: 10; fill: rgb(0,0,0); fill-rule: nonzero; opacity: 1;" transform=" matrix(1 0 0 1 0 0) " stroke-linecap="round"/>
	<path d="M 89.994 6.076 c 0.001 -0.45 -0.002 -0.902 -0.013 -1.357 c -0.005 -0.251 -0.015 -0.503 -0.024 -0.754 c -0.011 -0.314 -0.021 -0.626 -0.037 -0.942 c -0.031 -0.603 -0.07 -1.207 -0.121 -1.815 c -0.04 -0.487 -0.426 -0.873 -0.913 -0.914 c -0.611 -0.051 -1.218 -0.09 -1.824 -0.121 c -0.299 -0.016 -0.596 -0.024 -0.894 -0.035 c -0.269 -0.01 -0.539 -0.02 -0.807 -0.026 C 84.924 0.103 84.49 0.1 84.057 0.1 c -0.076 0 -0.151 0 -0.227 0.001 C 74.977 0.147 66.856 2.365 58.638 6.96 c -0.01 0.006 -0.015 0.017 -0.025 0.023 c -6.629 3.691 -13.252 8.911 -20.115 15.775 c -0.885 0.885 -1.755 1.781 -2.608 2.684 c -0.033 -0.001 -0.063 -0.015 -0.097 -0.012 l -13.747 1.045 c -0.192 0.015 -0.377 0.084 -0.53 0.201 L 0.388 42.751 c -0.329 0.25 -0.47 0.676 -0.356 1.072 c 0.114 0.397 0.46 0.683 0.871 0.72 l 20.2 1.823 l 8.119 8.118 c -2.647 -0.016 -5.624 1.223 -8.004 3.602 c -1.078 1.078 -1.943 2.286 -2.573 3.598 c -0.882 1.869 -2.844 6.741 -4.922 11.9 l -1 2.483 c -0.15 0.372 -0.063 0.798 0.22 1.081 c 0.191 0.191 0.447 0.293 0.707 0.293 c 0.126 0 0.253 -0.023 0.374 -0.072 l 2.569 -1.035 c 5.12 -2.062 9.955 -4.009 11.821 -4.889 c 1.304 -0.628 2.513 -1.492 3.591 -2.571 c 1.886 -1.886 3.133 -4.202 3.511 -6.522 c 0.082 -0.502 0.111 -0.989 0.109 -1.464 L 43.54 68.8 l 1.824 20.202 c 0.037 0.411 0.323 0.757 0.72 0.871 c 0.091 0.026 0.185 0.039 0.276 0.039 c 0.307 0 0.604 -0.142 0.796 -0.395 l 16.076 -21.127 c 0.116 -0.153 0.187 -0.337 0.201 -0.529 l 1.025 -13.478 c 0.969 -0.911 1.93 -1.839 2.879 -2.788 c 6.865 -6.865 12.085 -13.488 15.777 -20.118 c 0.005 -0.009 0.015 -0.013 0.02 -0.022 c 4.6 -8.226 6.818 -16.353 6.859 -25.221 C 89.993 6.182 89.993 6.129 89.994 6.076 z M 86.43 18.219 c -0.031 0.117 -0.064 0.233 -0.096 0.35 c -0.929 3.347 -2.32 6.917 -4.339 10.718 L 60.807 8.099 c 3.795 -2.016 7.361 -3.405 10.703 -4.334 c 0.126 -0.034 0.252 -0.07 0.378 -0.104 c 0.247 -0.067 0.492 -0.128 0.737 -0.189 c 4.894 -1.208 9.913 -1.614 15.246 -1.248 c 0.366 5.327 -0.039 10.343 -1.245 15.232 C 86.562 17.709 86.499 17.963 86.43 18.219 z M 22.492 28.445 l 11.44 -0.869 c -2.062 2.285 -4.008 4.609 -5.827 6.954 c -0.003 0.003 -0.007 0.005 -0.01 0.008 c -0.078 0.1 -0.149 0.2 -0.226 0.3 c -0.586 0.76 -1.162 1.521 -1.719 2.284 c -0.112 0.154 -0.218 0.307 -0.329 0.46 c -0.526 0.728 -1.046 1.456 -1.544 2.184 c -0.208 0.304 -0.401 0.605 -0.604 0.908 c -0.387 0.578 -0.778 1.157 -1.146 1.735 c -0.422 0.66 -0.817 1.315 -1.212 1.969 L 3.65 42.782 L 22.492 28.445 z M 24.5 43.041 c 0.248 -0.383 0.507 -0.769 0.765 -1.154 c 0.263 -0.395 0.529 -0.791 0.801 -1.186 c 0.337 -0.489 0.681 -0.98 1.032 -1.471 c 0.188 -0.264 0.38 -0.527 0.571 -0.79 c 0.414 -0.569 0.832 -1.138 1.265 -1.708 c 0.017 -0.022 0.035 -0.045 0.052 -0.067 l 24.443 24.443 c -0.028 0.021 -0.056 0.043 -0.084 0.065 c -0.559 0.424 -1.117 0.833 -1.675 1.24 c -0.273 0.199 -0.546 0.397 -0.819 0.592 c -0.484 0.346 -0.967 0.684 -1.448 1.016 c -0.408 0.281 -0.816 0.555 -1.224 0.826 c -0.372 0.249 -0.745 0.5 -1.116 0.74 c -0.802 0.518 -1.604 1.024 -2.402 1.505 L 23.001 45.434 C 23.48 44.638 23.984 43.84 24.5 43.041 z M 33.543 62.031 c -0.311 1.909 -1.359 3.837 -2.951 5.429 c -0.919 0.918 -1.943 1.653 -3.038 2.179 c -1.806 0.853 -6.84 2.879 -11.708 4.84 l -0.39 0.157 l 0.125 -0.311 c 1.974 -4.902 4.015 -9.971 4.869 -11.78 c 0.529 -1.103 1.264 -2.126 2.182 -3.044 c 1.986 -1.986 4.43 -3.054 6.523 -3.054 c 1.279 0 2.427 0.398 3.259 1.231 C 33.434 58.696 33.835 60.241 33.543 62.031 z M 61.461 67.415 l -14.337 18.84 l -1.569 -17.378 c 0.707 -0.424 1.416 -0.854 2.13 -1.311 c 0.563 -0.359 1.126 -0.74 1.689 -1.116 c 0.319 -0.213 0.636 -0.416 0.956 -0.636 c 0.709 -0.485 1.417 -0.991 2.125 -1.502 c 0.176 -0.127 0.351 -0.248 0.527 -0.376 c 0.736 -0.537 1.469 -1.093 2.202 -1.657 c 0.124 -0.095 0.248 -0.184 0.372 -0.28 c 0.004 -0.003 0.006 -0.009 0.01 -0.012 c 2.269 -1.76 4.521 -3.637 6.735 -5.626 L 61.461 67.415 z M 65.923 50.181 c -3.514 3.514 -7.182 6.768 -10.897 9.695 L 30.217 35.068 c 2.927 -3.715 6.181 -7.383 9.696 -10.897 c 6.902 -6.902 13.249 -11.723 19.073 -15.064 l 22.001 22.001 C 77.646 36.932 72.825 43.279 65.923 50.181 z" style="stroke: none; stroke-width: 1; stroke-dasharray: none; stroke-linecap: butt; stroke-linejoin: miter; stroke-miterlimit: 10; fill: rgb(0,0,0); fill-rule: nonzero; opacity: 1;" transform=" matrix(1 0 0 1 0 0) " stroke-linecap="round"/>
</g>
</svg>