<svg xmlns="http://www.w3.org/2000/svg" xmlns:xlink="http://www.w3.org/1999/xlink" version="1.1" width="256" height="256" viewBox="0 0 256 256" xml:space="preserve">
<g style="stroke: none; stroke-width: 0; stroke-dasharray: none; stroke-linecap: butt; stroke-linejoin: miter; stroke-miterlimit: 10; fill: none; fill-rule: nonzero; opacity: 1;" transform="translate(1.4065934065934016 1.4065934065934016) scale(2.81 2.81)">
	<path d="M 21.574 67.189 c -0.266 0 -0.527 -0.105 -0.719 -0.305 c -0.296 -0.307 -0.366 -0.767 -0.174 -1.146 l 23.426 -46.379 c 0.208 -0.413 0.672 -0.629 1.125 -0.522 C 45.682 18.944 46 19.347 46 19.81 v 35.516 c 0 0.39 -0.226 0.743 -0.579 0.907 L 21.995 67.097 C 21.86 67.159 21.716 67.189 21.574 67.189 z M 44 24.008 L 23.764 64.071 L 44 54.688 V 24.008 z" style="stroke: none; stroke-width: 1; stroke-dasharray: none; stroke-linecap: butt; stroke-linejoin: miter; stroke-miterlimit: 10; fill: rgb(0,0,0); fill-rule: nonzero; opacity: 1;" transform=" matrix(1 0 0 1 0 0) " stroke-linecap="round"/>
	<polygon points="45,19.81 68.43,66.19 45,55.33 " style="stroke: none; stroke-width: 1; stroke-dasharray: none; stroke-linecap: butt; stroke-linejoin: miter; stroke-miterlimit: 10; fill: rgb(0,0,0); fill-rule: nonzero; opacity: 1;" transform="  matrix(1 0 0 1 0 0) "/>
	<path d="M 68.426 67.189 c -0.143 0 -0.286 -0.03 -0.421 -0.093 L 44.579 56.233 C 44.226 56.069 44 55.716 44 55.326 V 19.81 c 0 -0.463 0.318 -0.866 0.768 -0.973 c 0.453 -0.107 0.916 0.109 1.125 0.522 l 23.426 46.379 c 0.192 0.38 0.122 0.84 -0.174 1.146 C 68.952 67.084 68.69 67.189 68.426 67.189 z M 46 54.688 l 20.235 9.384 L 46 24.008 V 54.688 z" style="stroke: none; stroke-width: 1; stroke-dasharray: none; stroke-linecap: butt; stroke-linejoin: miter; stroke-miterlimit: 10; fill: rgb(0,0,0); fill-rule: nonzero; opacity: 1;" transform=" matrix(1 0 0 1 0 0) " stroke-linecap="round"/>
	<path d="M 45 90 C 20.187 90 0 69.813 0 45 C 0 20.187 20.187 0 45 0 c 24.813 0 45 20.187 45 45 C 90 69.813 69.813 90 45 90 z M 45 2 C 21.29 2 2 21.29 2 45 c 0 23.71 19.29 43 43 43 c 23.71 0 43 -19.29 43 -43 C 88 21.29 68.71 2 45 2 z" style="stroke: none; stroke-width: 1; stroke-dasharray: none; stroke-linecap: butt; stroke-linejoin: miter; stroke-miterlimit: 10; fill: rgb(0,0,0); fill-rule: nonzero; opacity: 1;" transform=" matrix(1 0 0 1 0 0) " stroke-linecap="round"/>
</g>
</svg>